<svg width="192" height="192" viewBox="0 0 192 192" fill="none" xmlns="http://www.w3.org/2000/svg">
<path d="M96.009 0C69.9367 0 66.6647 0.114002 56.4246 0.580002C46.2045 1.048 39.2284 2.666 33.1243 5.04C26.8103 7.492 21.4542 10.772 16.1182 16.11C10.7781 21.446 7.49808 26.802 5.03805 33.114C2.65803 39.22 1.03801 46.198 0.578005 56.414C0.12 66.654 0 69.928 0 96C0 122.072 0.116003 125.334 0.580008 135.574C1.05001 145.794 2.66803 152.77 5.04005 158.874C7.49408 165.188 10.7741 170.544 16.1122 175.88C21.4462 181.22 26.8023 184.508 33.1123 186.96C39.2204 189.334 46.1985 190.952 56.4166 191.42C66.6567 191.886 69.9267 192 95.997 192C122.071 192 125.333 191.886 135.573 191.42C145.794 190.952 152.778 189.334 158.886 186.96C165.198 184.508 170.546 181.22 175.88 175.88C181.22 170.544 184.5 165.188 186.96 158.876C189.32 152.77 190.94 145.792 191.42 135.576C191.88 125.336 192 122.072 192 96C192 69.928 191.88 66.656 191.42 56.416C190.94 46.196 189.32 39.22 186.96 33.116C184.5 26.802 181.22 21.446 175.88 16.11C170.54 10.77 165.2 7.49 158.88 5.04C152.76 2.666 145.78 1.048 135.559 0.580002C125.319 0.114002 122.059 0 95.979 0H96.009ZM87.3969 17.3C89.9529 17.296 92.805 17.3 96.009 17.3C121.641 17.3 124.679 17.392 134.801 17.852C144.161 18.28 149.242 19.844 152.626 21.158C157.106 22.898 160.3 24.978 163.658 28.338C167.018 31.698 169.098 34.898 170.842 39.378C172.156 42.758 173.722 47.838 174.148 57.198C174.608 67.318 174.708 70.358 174.708 95.978C174.708 121.598 174.608 124.638 174.148 134.758C173.72 144.118 172.156 149.198 170.842 152.578C169.102 157.058 167.018 160.248 163.658 163.606C160.298 166.966 157.108 169.046 152.626 170.786C149.246 172.106 144.161 173.666 134.801 174.094C124.681 174.554 121.641 174.654 96.009 174.654C70.3747 174.654 67.3367 174.554 57.2166 174.094C47.8565 173.662 42.7764 172.098 39.3904 170.784C34.9104 169.044 31.7103 166.964 28.3503 163.604C24.9903 160.244 22.9102 157.052 21.1662 152.57C19.8522 149.19 18.2862 144.11 17.8602 134.75C17.4002 124.63 17.3082 121.59 17.3082 95.954C17.3082 70.318 17.4002 67.294 17.8602 57.174C18.2882 47.814 19.8522 42.734 21.1662 39.35C22.9062 34.87 24.9903 31.67 28.3503 28.31C31.7103 24.95 34.9104 22.87 39.3904 21.126C42.7744 19.806 47.8565 18.246 57.2166 17.816C66.0727 17.416 69.5047 17.296 87.3969 17.276V17.3ZM147.254 33.24C140.893 33.24 135.733 38.394 135.733 44.756C135.733 51.116 140.893 56.276 147.254 56.276C153.614 56.276 158.774 51.116 158.774 44.756C158.774 38.396 153.614 33.236 147.254 33.236V33.24ZM96.009 46.7C68.7827 46.7 46.7085 68.774 46.7085 96C46.7085 123.226 68.7827 145.29 96.009 145.29C123.235 145.29 145.302 123.226 145.302 96C145.302 68.774 123.233 46.7 96.007 46.7H96.009ZM96.009 64C113.681 64 128.009 78.326 128.009 96C128.009 113.672 113.681 128 96.009 128C78.3348 128 64.0087 113.672 64.0087 96C64.0087 78.326 78.3348 64 96.009 64Z" fill="white"/>
</svg>
