<svg width="192" height="192" viewBox="0 0 192 192" fill="none" xmlns="http://www.w3.org/2000/svg">
<path d="M84.6739 138.307L77.6351 119.114C77.6351 119.114 66.1974 131.91 49.0454 131.91C33.8684 131.91 23.0929 118.673 23.0929 97.4931C23.0929 70.3573 36.7272 60.6502 50.1449 60.6502C69.4977 60.6502 75.6551 73.225 80.9346 89.3311L87.9734 111.393C95.0096 132.792 108.206 150 146.253 150C173.527 150 192 141.617 192 119.556C192 101.686 181.882 92.4194 162.967 88.0066L148.892 84.9183C139.216 82.7123 136.357 78.7408 136.357 72.122C136.357 64.6209 142.294 60.2082 151.973 60.2082C162.529 60.2082 168.247 64.1797 169.127 73.6662L191.12 71.0182C189.36 51.1629 175.725 43 153.292 43C133.499 43 114.145 50.5011 114.145 74.5486C114.145 89.5508 121.403 99.0381 139.655 103.45L154.612 106.979C165.828 109.627 169.566 114.259 169.566 120.658C169.566 128.819 161.649 132.129 146.694 132.129C124.481 132.129 115.245 120.437 109.966 104.331L102.708 82.2703C93.4727 53.5894 78.7355 43 49.4844 43C17.1554 43 0 63.5171 0 98.3746C0 131.909 17.1554 149.999 47.9467 149.999C72.7955 149.999 84.6739 138.307 84.6739 138.307Z" fill="white"/>
</svg>
