<svg width="192" height="192" viewBox="0 0 192 192" fill="none" xmlns="http://www.w3.org/2000/svg">
<path d="M95.9994 0C42.9815 0 0 42.9814 0 96.0006C0 149.022 42.9815 192 95.9994 192C149.023 192 192 149.022 192 96.0006C192 42.9848 149.023 0.00458551 95.9983 0.00458551L95.9994 0ZM140.024 138.46C138.305 141.28 134.613 142.175 131.793 140.444C109.254 126.676 80.879 123.557 47.4626 131.192C44.2425 131.926 41.0327 129.908 40.2991 126.687C39.562 123.466 41.5715 120.256 44.7997 119.522C81.3685 111.164 112.736 114.765 138.041 130.229C140.861 131.96 141.755 135.64 140.024 138.46ZM151.774 112.317C149.608 115.842 144.999 116.954 141.48 114.788C115.676 98.9227 76.3405 94.3291 45.8188 103.594C41.8604 104.79 37.6796 102.559 36.4782 98.6074C35.286 94.649 37.518 90.4761 41.4695 89.2724C76.3337 78.6936 119.676 83.8179 149.31 102.028C152.829 104.195 153.941 108.803 151.774 112.318V112.317ZM152.783 85.0973C121.843 66.7196 70.7956 65.0298 41.2551 73.9957C36.5115 75.4344 31.495 72.7565 30.0575 68.0127C28.62 63.2667 31.2956 58.2536 36.0426 56.8114C69.953 46.5169 126.325 48.5058 161.947 69.6532C166.223 72.1856 167.622 77.6962 165.088 81.9574C162.566 86.2242 157.041 87.6308 152.788 85.0973H152.783Z" fill="black"/>
</svg>
