<svg width="192" height="192" viewBox="0 0 192 192" fill="none" xmlns="http://www.w3.org/2000/svg">
<path fill-rule="evenodd" clip-rule="evenodd" d="M13.199 84.4483L116.302 40.0696C165.4 19.6629 175.602 16.1182 182.252 16.0013C183.715 15.9755 186.985 16.3376 189.103 18.0552C190.892 19.5053 191.383 21.4649 191.619 22.8393C191.855 24.2138 192.148 27.3468 191.915 29.7943C189.254 57.7289 177.741 125.521 171.884 156.809C169.406 170.048 164.53 174.487 159.802 174.921C149.535 175.865 141.739 168.141 131.795 161.627L92.3402 135.144C74.8849 123.65 86.2005 117.332 96.1484 107.008C98.7515 104.305 143.987 63.1897 144.862 59.4599C144.969 58.9935 145.074 57.2551 144.04 56.3364C143.006 55.4178 141.48 55.7358 140.379 55.982C138.819 56.3361 113.961 72.7541 65.8065 105.237C58.7506 110.078 52.3595 112.438 46.6338 112.314C40.3211 112.178 28.1785 108.747 19.1517 105.815C8.07976 102.219 -0.720031 100.317 0.0465517 94.2096C0.445401 91.0285 4.82956 87.7753 13.1987 84.4491L13.199 84.4483Z" fill="white"/>
</svg>
