<svg width="192" height="192" viewBox="0 0 192 192" fill="none" xmlns="http://www.w3.org/2000/svg">
<path d="M127.333 0C146.385 0 155.546 1.76913 165.065 6.8598C173.697 11.4762 180.524 18.3029 185.14 26.9349C190.231 36.4536 192 45.6149 192 64.6666V127.333C192 146.385 190.231 155.546 185.14 165.065C180.524 173.697 173.697 180.524 165.065 185.14C155.546 190.231 146.385 192 127.333 192H64.6666C45.6149 192 36.4536 190.231 26.9349 185.14C18.3029 180.524 11.4762 173.697 6.8598 165.065C1.76913 155.546 0 146.385 0 127.333V64.6666C0 45.6149 1.76913 36.4536 6.8598 26.9349C11.4762 18.3029 18.3029 11.4762 26.9349 6.8598C36.4536 1.76913 45.6149 0 64.6666 0H127.333ZM127.333 17.4545H64.6666C48.2499 17.4545 41.8108 18.698 35.1664 22.2514C29.5762 25.2411 25.2411 29.5762 22.2514 35.1664C18.698 41.8108 17.4545 48.2499 17.4545 64.6666V127.333C17.4545 143.75 18.698 150.189 22.2514 156.834C25.2411 162.424 29.5762 166.759 35.1664 169.749C41.8108 173.302 48.2499 174.545 64.6666 174.545H127.333C143.75 174.545 150.189 173.302 156.834 169.749C162.424 166.759 166.759 162.424 169.749 156.834C173.302 150.189 174.545 143.75 174.545 127.333V64.6666C174.545 48.2499 173.302 41.8108 169.749 35.1664C166.759 29.5762 162.424 25.2411 156.834 22.2514C150.189 18.698 143.75 17.4545 127.333 17.4545ZM57.0012 66.1091C60.0513 66.1091 61.1987 67.444 62.3426 70.7489C68.1796 87.752 78.0212 102.611 82.0671 102.611C83.4326 102.611 84.1329 102.046 84.2593 99.1234L84.2803 98.0596V80.4846C83.8372 72.3924 79.5385 71.729 79.5385 68.8523C79.5385 67.6844 80.4117 66.4601 81.9004 66.1722L82.5753 66.1091H101.33C103.578 66.1091 104.523 67.1777 104.706 69.5464L104.739 70.4961V94.14C104.739 96.6686 105.837 97.5536 106.596 97.5536C108.113 97.5536 109.378 96.6686 112.159 93.887C120.757 84.2777 126.826 69.4844 126.826 69.4844C127.501 67.911 128.681 66.4678 131.066 66.1666L132.019 66.1091H143.953C147.562 66.1091 148.321 67.9673 147.562 70.4961C146.162 76.9151 133.664 94.8619 131.75 97.585L131.504 97.9331C130.24 99.956 129.734 100.968 131.504 103.243C132.769 105.014 136.941 108.554 139.723 111.841C144.85 117.609 148.713 122.474 149.789 125.827C150.691 128.912 149.334 130.601 146.475 130.861L145.658 130.897H133.724C129.172 130.897 127.838 127.267 119.746 119.175C112.665 112.347 109.631 111.462 107.861 111.462C105.698 111.462 104.9 112.013 104.762 114.609L104.74 115.552V126.255C104.74 129.192 103.801 130.897 96.2148 130.897C83.571 130.897 69.676 123.221 59.814 109.06C45.0208 88.3238 40.9747 72.6454 40.9747 69.4844C40.9747 67.8913 41.5271 66.4318 44.1234 66.1558L45.0666 66.1091H57.0012Z" fill="white"/>
</svg>
