<svg version="1" xmlns="http://www.w3.org/2000/svg" width="933.333" height="933.333" viewBox="0 0 700.000000 700.000000"><path d="M463.7 87.6c-.1.1-3.2.4-6.9.8-26.6 2.5-55 14.7-75.4 32.3-10.8 9.4-120.8 120.1-126 126.8-5.9 7.7-10.6 15-14.3 22.3-3.1 6.2-8 17.8-8.6 20.2-.1.8-1 4.1-2 7.2-.9 3.1-1.8 7-2.1 8.5-.2 1.5-.6 3.7-.9 4.8-4 18.3-1.7 47.2 5.7 69 8.4 24.8 27.8 52.4 41.5 59.1 18.2 9 40.7-5.5 39.8-25.6-.4-8.4-2.7-13.4-9.5-21-21.3-23.6-28.2-52.7-19.5-82.8 2.2-7.5 7.7-18.4 12.8-25.2 2.2-3 30.2-31.7 62.1-63.6 60.5-60.6 63.6-63.3 78.4-69.8 3.4-1.5 7-2.9 8-3.1.9-.3 3.5-.9 5.7-1.5 14-3.5 31-2.8 45.7 2.1 20.3 6.6 37.5 20.9 48 39.9 3 5.4 7.4 17.9 8.4 23.5.4 2.2.8 4.9 1.1 6 .2 1.1.4 5.4.4 9.5.3 24.2-8.1 43.7-27.3 63.4-9.1 9.4-11.3 14-11.3 23.6 0 6.4.4 8.3 3 12.9 7.2 13 22.4 18.2 36.2 12.5 6.9-2.9 25.5-22.8 34.4-36.9 6.7-10.5 15.3-30.9 17.3-40.5.2-1.4 1-5 1.6-8 6.8-34.5-.9-73-20.7-103.3-6-9-7.8-11.2-18.3-21.8-10.2-10.3-16.6-15.4-27.4-21.8-21.5-12.6-44.7-19-71.4-19.5-4.5-.1-8.3-.1-8.5 0z"/><path d="M406.5 259.5c-8.8 2.6-14.4 7.3-18.6 15.5-1.7 3.4-2.2 6.2-2.2 11.5 0 8.6 2.3 13.7 9.4 21.5 9.3 10.3 16.3 22.5 20 35.2 1.6 5.5 2.2 10.7 2.5 20.8.3 11.7 0 14.7-2.1 22.8-2.7 10.3-7.5 20.6-13.7 29.1-5.2 7.1-116.4 118.3-123.8 123.8-32.6 24.3-78.9 21.3-108.2-7-12.3-11.9-21.9-29.1-24.3-43.7-.4-2.5-.9-5.4-1.2-6.5-.5-2.7-.5-21.3 0-22.3.3-.4.8-2.5 1.1-4.7.9-6 3.4-13.2 7.3-20.9 4.5-9.1 7.8-13.7 16.2-22.6 9.5-10.1 11.6-14.4 11.6-24 0-8.5-1.6-12.7-7.4-19-7.3-8.2-21.5-11-31.8-6.4-5 2.2-19.3 16.5-27.1 26.9-10.4 14.1-20 35.9-23.7 54-4.9 24.2-3.5 49.7 4.1 72.3 9.7 29.3 28.4 54.1 53.8 71.7 36.5 25.3 83 31.7 125.1 17.3 14.4-4.9 32.1-14.8 43.5-24.2 7.4-6.2 120.8-119.6 125.9-126.1 34.2-42.8 41-99 18-148.4-8.7-18.8-26.3-40.9-35.7-44.9-5.9-2.6-13.5-3.3-18.7-1.7z"/></svg>