<svg width="192" height="192" viewBox="0 0 192 192" fill="none" xmlns="http://www.w3.org/2000/svg">
<path d="M92.8 43.5952V58.2667C86.3536 55.4667 71.2 49.8667 58.5542 50.4533C45.8294 51.0437 36.0624 54.3472 29.296 62.1344C22.5285 69.9227 19.1451 81.1797 19.1451 95.9083C19.1451 110.588 22.5285 121.82 29.296 129.607C36.0624 137.396 45.8155 141.288 58.5542 141.288C65.0219 141.288 80.6667 138.267 92.8 131.093V146.842C88.1334 148.267 74.8 153.467 57.6582 153.678C40.7915 153.886 27.5045 148.516 17.8016 138.19C8.09868 127.866 3.24695 113.772 3.24695 95.9077C3.24695 77.9947 8.09868 63.8763 17.8016 53.5504C27.5045 43.2261 40.7952 38.4827 57.6582 38.0629C70.9334 37.7333 83.0976 41.2965 92.8 43.5952ZM182.092 43.736V58.4395C176.37 55.7035 170.971 53.6624 165.896 52.3189C160.821 50.9755 155.919 50.304 151.193 50.304C142.982 50.304 136.65 51.8971 132.197 55.0811C127.743 58.2661 125.517 62.7941 125.517 68.6651C125.517 73.5909 126.997 77.3115 129.958 79.8235C132.918 82.3365 138.529 84.3648 146.789 85.9067L155.895 87.7728C167.14 89.9131 175.438 93.6821 180.787 99.0805C186.135 104.48 188.811 111.707 188.811 120.763C188.811 131.561 185.191 139.747 177.951 145.319C170.711 150.892 160.099 153.678 146.117 153.678C140.843 153.678 135.232 153.082 129.286 151.887C123.34 150.693 117.182 148.927 110.813 146.588V131.063C116.934 134.497 122.929 137.084 128.801 138.826C134.672 140.568 140.445 141.438 146.117 141.438C154.725 141.438 161.369 139.747 166.046 136.362C170.723 132.979 173.062 128.151 173.062 121.883C173.062 116.41 171.382 112.131 168.023 109.045C164.665 105.961 159.153 103.646 151.491 102.103L142.311 100.313C131.065 98.0731 122.929 94.5653 117.904 89.7883C112.877 85.0112 110.365 78.3685 110.365 69.8597C110.365 60.0075 113.836 52.2453 120.777 46.5723C127.718 40.8997 137.284 38.0635 149.476 38.0635C154.7 38.0635 160.024 38.5371 165.448 39.4816C170.871 40.4272 176.42 41.8453 182.092 43.736Z" fill="white"/>
<path d="M45.9728 81.6197C45.9728 80.0304 46.5189 78.6891 47.6122 77.5963C48.7045 76.504 50.0458 75.9573 51.6357 75.9573C53.2538 75.9573 54.6016 76.4965 55.6805 77.5755C56.7589 78.6544 57.2986 80.0021 57.2986 81.6203C57.2986 83.2384 56.7589 84.5872 55.6805 85.6651C54.6016 86.744 53.2533 87.2832 51.6357 87.2832C50.0458 87.2832 48.7045 86.7371 47.6122 85.6437C46.5189 84.5509 45.9728 83.2096 45.9728 81.6197ZM45.9728 109.381C45.9728 107.792 46.5189 106.443 47.6122 105.336C48.7045 104.229 50.0458 103.676 51.6357 103.676C53.225 103.676 54.5664 104.229 55.6592 105.336C56.7514 106.443 57.2986 107.791 57.2986 109.381C57.2986 110.971 56.7589 112.312 55.6805 113.405C54.6016 114.497 53.2533 115.044 51.6357 115.044C50.0181 115.044 48.6693 114.497 47.5909 113.405C46.5114 112.312 45.9728 110.971 45.9728 109.381ZM75.272 81.6197C75.272 80.0304 75.8181 78.6891 76.9114 77.5963C78.0037 76.504 79.3451 75.9573 80.9349 75.9573C82.5531 75.9573 83.9008 76.4965 84.9797 77.5755C86.0581 78.6544 86.5978 80.0021 86.5978 81.6203C86.5978 83.2384 86.0581 84.5872 84.9797 85.6651C83.9008 86.744 82.5525 87.2832 80.9349 87.2832C79.3451 87.2832 78.0037 86.7371 76.9114 85.6437C75.8181 84.5509 75.272 83.2096 75.272 81.6197ZM75.272 109.381C75.272 107.792 75.8181 106.443 76.9114 105.336C78.0037 104.229 79.3451 103.676 80.9349 103.676C82.5243 103.676 83.8656 104.229 84.9584 105.336C86.0506 106.443 86.5978 107.791 86.5978 109.381C86.5978 110.971 86.0581 112.312 84.9797 113.405C83.9008 114.497 82.5525 115.044 80.9349 115.044C79.3173 115.044 77.968 114.497 76.8901 113.405C75.8112 112.312 75.272 110.971 75.272 109.381Z" fill="white"/>
</svg>
