<svg width="192" height="192" viewBox="0 0 192 192" fill="none" xmlns="http://www.w3.org/2000/svg">
<path d="M156.101 40.0117C144.955 34.9149 133.003 31.1597 120.506 29.009C120.279 28.9675 120.051 29.0712 119.934 29.2787C118.397 32.0034 116.694 35.558 115.502 38.3519C102.061 36.3464 88.6885 36.3464 75.523 38.3519C74.3304 35.4959 72.5659 32.0034 71.0218 29.2787C70.9046 29.0782 70.6772 28.9744 70.4497 29.009C57.9597 31.1529 46.0074 34.908 34.8547 40.0117C34.7581 40.0532 34.6754 40.1225 34.6204 40.2123C11.9495 73.9673 5.73897 106.893 8.78564 139.41C8.79943 139.569 8.88903 139.721 9.01311 139.818C23.9707 150.765 38.4598 157.411 52.6797 161.816C52.9073 161.885 53.1485 161.802 53.2933 161.616C56.657 157.038 59.6555 152.211 62.2264 147.134C62.3781 146.837 62.2333 146.484 61.9232 146.367C57.1671 144.569 52.6384 142.377 48.282 139.887C47.9375 139.686 47.9099 139.195 48.2269 138.96C49.1436 138.276 50.0606 137.563 50.9359 136.844C51.0943 136.713 51.315 136.685 51.5012 136.768C80.1204 149.79 111.104 149.79 139.386 136.768C139.572 136.678 139.793 136.706 139.958 136.837C140.834 137.556 141.75 138.276 142.674 138.96C142.991 139.195 142.97 139.686 142.626 139.887C138.269 142.425 133.741 144.569 128.978 146.36C128.667 146.478 128.53 146.837 128.681 147.134C131.307 152.204 134.306 157.031 137.607 161.609C137.745 161.802 137.993 161.885 138.221 161.816C152.51 157.411 166.999 150.765 181.956 139.818C182.088 139.721 182.17 139.576 182.184 139.417C185.83 101.823 176.077 69.168 156.329 40.2192C156.28 40.1225 156.198 40.0532 156.101 40.0117ZM66.5002 119.61C57.8839 119.61 50.7842 111.727 50.7842 102.045C50.7842 92.3628 57.7462 84.4792 66.5002 84.4792C75.323 84.4792 82.3539 92.432 82.216 102.045C82.216 111.727 75.254 119.61 66.5002 119.61ZM124.607 119.61C115.991 119.61 108.892 111.727 108.892 102.045C108.892 92.3628 115.853 84.4792 124.607 84.4792C133.43 84.4792 140.461 92.432 140.323 102.045C140.323 111.727 133.43 119.61 124.607 119.61Z" fill="white"/>
</svg>
