<svg width="192" height="192" viewBox="0 0 192 192" fill="none" xmlns="http://www.w3.org/2000/svg">
<path fill-rule="evenodd" clip-rule="evenodd" d="M96.3175 3C43.0218 3 0 45.8847 0 99.0105C0 141.255 27.611 177.099 66.138 189.901C71.275 190.541 72.5592 187.98 72.5592 185.42V168.778C45.5903 174.539 39.8112 155.977 39.8112 155.977C35.3164 145.096 28.8953 141.895 28.8953 141.895C19.9056 136.135 29.5374 136.135 29.5374 136.135C39.1691 136.775 44.3061 145.736 44.3061 145.736C52.6536 160.457 66.7801 155.977 72.5592 153.417C73.2013 147.016 75.7698 143.175 78.9804 140.615C57.7905 138.055 35.3164 129.734 35.3164 93.2499C35.3164 83.0088 39.1691 74.0478 44.9482 67.6471C43.6639 65.0868 40.4534 55.4858 45.5903 42.0443C45.5903 42.0443 53.9378 39.484 71.9171 51.6453C79.6225 49.7251 87.97 48.445 96.3175 48.445C104.665 48.445 113.013 49.7251 120.718 51.6453C139.339 39.484 147.045 42.0443 147.045 42.0443C152.182 55.4858 148.971 65.0868 147.687 67.6471C154.108 74.0478 157.319 83.0088 157.319 93.2499C157.319 130.374 134.845 138.055 113.655 140.615C116.865 143.815 120.076 149.576 120.076 158.537V184.78C120.076 187.34 122.002 190.541 126.497 189.26C165.024 176.459 191.993 140.615 191.993 98.3705C192.635 45.8847 149.613 3 96.3175 3Z" fill="white"/>
</svg>
