<svg width="192" height="192" viewBox="0 0 192 192" fill="none" xmlns="http://www.w3.org/2000/svg">
<path fill-rule="evenodd" clip-rule="evenodd" d="M192 36.4793C184.925 39.6022 177.334 41.7223 169.371 42.6678C177.506 37.7972 183.751 30.0617 186.672 20.865C179.053 25.3917 170.632 28.6579 161.666 30.4342C154.477 22.7846 144.251 18 132.908 18C111.167 18 93.5223 35.6485 93.5223 57.3939C93.5223 60.4882 93.866 63.4964 94.5535 66.3614C61.8135 64.7284 32.7973 49.0281 13.3767 25.1912C9.99672 31.0072 8.04893 37.7686 8.04893 44.9884C8.04893 58.6545 15.0094 70.7163 25.579 77.7642C19.1341 77.5636 13.0616 75.7873 7.73385 72.8364C7.73385 73.0083 7.73385 73.1515 7.73385 73.3234C7.73385 92.4044 21.3111 108.334 39.3281 111.944C36.034 112.832 32.5395 113.319 28.959 113.319C26.4097 113.319 23.9463 113.061 21.5402 112.603C26.5529 128.246 41.104 139.648 58.319 139.964C44.8277 150.536 27.8705 156.839 9.3952 156.839C6.21572 156.839 3.09354 156.638 0 156.294C17.4155 167.468 38.125 174 60.3813 174C132.822 174 172.436 113.978 172.436 61.9207C172.436 60.2017 172.408 58.5113 172.322 56.8209C180.027 51.2628 186.701 44.3295 191.971 36.422L192 36.4793Z" fill="white"/>
</svg>
