<svg version="1" xmlns="http://www.w3.org/2000/svg" width="933.333" height="933.333" viewBox="0 0 700.000000 700.000000"><path d="M330.9 50.4c-.2.2-4 .6-8.4 1-4.4.3-9.1.8-10.5 1-1.4.3-4.6.7-7.3 1.1C291 55.2 267.4 61 251 66.7c-16.8 5.8-48.3 20.7-56.4 26.6-.6.4-4.6 3-9 5.8C143.6 126 104.9 169.3 82 215c-9 17.9-18.3 42.6-22.6 60-3.1 12.8-5.1 22.5-6 30-.2 1.9-.6 4.4-.9 5.6-1.7 7.3-2.7 48.9-1.6 63.4.5 5.5 2.9 24.6 3.6 28 .3 1.4.8 4.1 1.1 6 4 22.8 15 54.6 27.3 78.5 21.4 41.4 53.5 79.3 89.1 105 3 2.1 5.7 4.2 6 4.5.3.3 1.4 1 2.5 1.7 1.1.6 6.3 3.9 11.5 7.2 19.2 12.1 41.4 22.5 62.5 29.4 9 2.9 17.5 5.5 20.5 6.2.3 0 2.8.7 5.6 1.4 2.9.7 5.8 1.4 6.5 1.5.8.2 3 .6 4.9 1 5.7 1.2 7 1.4 19.5 3.2 18.4 2.6 63.7 2.6 77.4-.1 1.3-.2 4.2-.7 6.5-.9 4.6-.6 9.4-1.5 11.6-2.1.8-.2 3.1-.7 5-1 1.9-.3 5.3-1.1 7.5-1.7 2.2-.5 4.5-1.1 5-1.3 21.6-4.9 52.3-17.4 77-31.5 4.3-2.4 26.2-17 29.2-19.4 34.9-28.1 56.9-52.6 77.2-86.4 5.3-8.8 19.1-36.1 19.1-37.8 0-.3.7-2 1.5-3.7 2.9-6.4 10.3-29.5 12.8-40.2 3.2-13.5 6.3-31.2 7.4-42.5 1.5-15.9.6-65-1.2-68-.2-.3-.6-2.8-.9-5.6-1.9-17-9.9-46.6-18.5-68.1-2.3-5.8-9.6-21.7-11.3-24.8-.6-1.1-2.5-4.5-4.1-7.5-27.8-51-74.9-96.5-127.6-122.9-15.5-7.9-44.2-19-55.6-21.6-1.1-.2-6.7-1.5-12.5-2.9-5.8-1.3-12.5-2.7-15-3.1-2.5-.4-5.2-.9-6-1-.9-.2-4.3-.6-7.5-1-3.3-.4-7.3-.9-9-1.2-4-.6-48-1.5-48.6-.9zm50.1 51.5c4.1.7 8.9 1.4 10.5 1.6 23.2 3.1 57.9 15.4 80.5 28.4 22.1 12.6 37 24 54.5 41.6 20.9 20.8 35.1 40.7 48 67 6.2 12.7 15.6 37.2 17 44.4.2 1.2 1 4.7 1.8 7.9 1.8 6.9 4.4 22.8 5.6 33.7.9 8.5.7 43.6-.4 52-4.7 38.5-19.4 78.6-39.7 108.8-10.7 16-18.5 25.4-32.8 39.7-18.6 18.5-31.4 28.1-56.3 42.4-5.4 3.1-10.1 5.6-10.3 5.6-.3 0-3.1 1.2-6.2 2.6-3.1 1.4-7 3.2-8.7 3.9-6.3 2.9-24.4 8.7-34 11-24.6 5.8-35.9 7-64 6.9-17.6-.1-23.5-.5-36.5-2.7-41.4-6.9-78.2-22.8-111.5-48.1-16.2-12.2-28.3-24-44.3-43.2-6.2-7.3-20-28.8-26.1-40.4-14-26.9-22.5-54.7-26.5-87-1.4-11.4-1.5-49.3-.1-57 .3-1.9 1.5-8.7 2.6-15 2.9-16.9 8.3-35.8 15-52.2 6.9-16.8 22-42.4 34.8-58.8 7.2-9.2 27.6-30.2 35.5-36.6 2.7-2.1 5.4-4.4 6-4.9 1.8-1.7 18.6-13.5 19.2-13.5.3 0 2-1.1 3.7-2.4 4.3-3.2 24.2-13.7 34.2-17.9 15.2-6.5 42.6-14.6 54.8-16.1 1.8-.3 5.3-.8 8-1.1 13.4-1.9 19.9-2.2 38.2-2 11 .2 23.4.8 27.5 1.4z"/><path d="M336.4 202.4c-5.7 2.7-8.9 6.6-10.4 12.8-.7 2.9-1 30.5-.8 87.3.3 79.1.4 83.2 2.2 86.5 2.5 4.7 6.8 8.4 11.3 9.8 2 .6 8 1 13.3.9 9-.2 9.8-.4 14.1-3.5 9-6.5 8.4.7 8.6-95.9.2-55.9 0-85.4-.7-85.8-.6-.3-1-1.5-1-2.5 0-2.6-7.3-9.4-11.5-10.7-1.9-.6-7.2-1.1-11.9-1.1-6.6 0-9.4.4-13.2 2.2zM340.3 441.5c-9 2.7-15.5 7.9-20.7 16.2-3.1 5.1-4.1 9.5-4.1 18.8 0 12.6 7.3 23.8 19.6 30.1 4.7 2.4 6.6 2.8 14.4 2.8 8.3.1 9.6-.2 15.7-3.2 7.7-3.8 12.8-9.1 16.6-17.2 2.2-4.6 2.6-7 2.7-14 0-7.1-.4-9.4-2.6-14.1-5.9-12.5-16.9-19.9-30.2-20.5-3.9-.1-9.1.4-11.4 1.1z"/></svg>