<svg width="192" height="192" viewBox="0 0 192 192" fill="none" xmlns="http://www.w3.org/2000/svg">
<path d="M96 61.7142L100.849 56.8655C98.171 54.1875 93.829 54.1875 91.1513 56.8655L96 61.7142ZM89.1429 130.286C89.1429 134.073 92.2128 137.143 96 137.143C99.7872 137.143 102.857 134.073 102.857 130.286H89.1429ZM63.7227 84.2942C61.0448 86.9719 61.0448 91.3138 63.7227 93.9915C66.4006 96.6693 70.7424 96.6693 73.4201 93.9915L63.7227 84.2942ZM118.58 93.9915C121.258 96.6693 125.6 96.6693 128.277 93.9915C130.955 91.3138 130.955 86.9719 128.277 84.2942L118.58 93.9915ZM89.1429 61.7142V130.286H102.857V61.7142H89.1429ZM73.4201 93.9915L100.849 66.5629L91.1513 56.8655L63.7227 84.2942L73.4201 93.9915ZM91.1513 66.5629L118.58 93.9915L128.277 84.2942L100.849 56.8655L91.1513 66.5629ZM164.571 96C164.571 133.871 133.871 164.571 96 164.571V178.286C141.445 178.286 178.286 141.445 178.286 96H164.571ZM96 164.571C58.129 164.571 27.4286 133.871 27.4286 96H13.7143C13.7143 141.445 50.5548 178.286 96 178.286V164.571ZM27.4286 96C27.4286 58.129 58.129 27.4286 96 27.4286V13.7143C50.5548 13.7143 13.7143 50.5548 13.7143 96H27.4286ZM96 27.4286C133.871 27.4286 164.571 58.129 164.571 96H178.286C178.286 50.5548 141.445 13.7143 96 13.7143V27.4286Z" fill="#E6739F"/>
</svg>
