<svg width="216" height="216" viewBox="0 0 216 216" fill="none" xmlns="http://www.w3.org/2000/svg">
<path d="M108 15.4286C159.126 15.4286 200.571 56.8742 200.571 108C200.571 159.126 159.126 200.571 108 200.571C56.8742 200.571 15.4286 159.126 15.4286 108C15.4286 56.8742 56.8742 15.4286 108 15.4286ZM108 30.8571C65.3951 30.8571 30.8571 65.3952 30.8571 108C30.8571 150.604 65.3951 185.143 108 185.143C150.604 185.143 185.143 150.604 185.143 108C185.143 65.3952 150.604 30.8571 108 30.8571ZM108 135.771C113.965 135.771 118.8 140.607 118.8 146.571C118.8 152.536 113.965 157.371 108 157.371C102.035 157.371 97.2 152.536 97.2 146.571C97.2 140.607 102.035 135.771 108 135.771ZM108.568 61.7143C110.401 61.7143 111.552 62.0007 112.557 62.5386C113.563 63.0765 114.352 63.8657 114.89 64.8714C115.428 65.8771 115.714 67.0277 115.714 68.8606V116.282C115.714 118.115 115.428 119.266 114.89 120.271C114.352 121.277 113.563 122.066 112.557 122.604C111.552 123.142 110.401 123.429 108.568 123.429H107.432C105.599 123.429 104.448 123.142 103.443 122.604C102.437 122.066 101.648 121.277 101.11 120.271C100.572 119.266 100.286 118.115 100.286 116.282V68.8606C100.286 67.0277 100.572 65.8771 101.11 64.8714C101.648 63.8657 102.437 63.0765 103.443 62.5386C104.448 62.0007 105.599 61.7143 107.432 61.7143H108.568Z" fill="#E6739F"/>
</svg>
