<svg width="192" height="192" viewBox="0 0 192 192" fill="none" xmlns="http://www.w3.org/2000/svg">
<path d="M118.75 85.6686C128.214 85.6686 135.858 77.9886 135.858 68.5714C135.858 59.0629 128.214 51.4743 118.75 51.4743C109.286 51.4743 101.733 59.0629 101.733 68.5714C101.733 73.1059 103.526 77.4546 106.717 80.6609C109.908 83.8673 114.237 85.6686 118.75 85.6686ZM118.75 0C136.851 0 154.211 7.22447 167.01 20.0841C179.809 32.9437 187 50.3852 187 68.5714C187 88.4114 178.628 106.331 165.16 118.857H72.34C58.963 106.331 50.5 88.4114 50.5 68.5714C50.5 30.6286 81.076 0 118.75 0ZM41.4 182.857V192H23.2V182.857H5V128H187V182.857H168.8V192H150.6V182.857H41.4ZM23.2 155.429V164.571H105.1V155.429H23.2ZM123.3 146.286V164.571H141.5V146.286H123.3ZM159.7 146.286C157.287 146.286 154.972 147.249 153.265 148.964C151.559 150.678 150.6 153.004 150.6 155.429C150.6 157.853 151.559 160.179 153.265 161.894C154.972 163.608 157.287 164.571 159.7 164.571C162.113 164.571 164.428 163.608 166.135 161.894C167.841 160.179 168.8 157.853 168.8 155.429C168.8 153.004 167.841 150.678 166.135 148.964C164.428 147.249 162.113 146.286 159.7 146.286Z" fill="white"/>
</svg>
